<svg id="Group_331" data-name="Group 331" xmlns="http://www.w3.org/2000/svg" width="125" height="99.523" viewBox="0 0 125 99.523">
  <path id="Path_303" data-name="Path 303" d="M254.525,175.037a13.583,13.583,0,0,0-4.877-9.961A14.563,14.563,0,0,0,239.48,161.6h-67.7a19.692,19.692,0,0,0-4.617.519,13.891,13.891,0,0,0-10.376,13.489c-.052,9.753,0,19.507,0,29.26v1.92h-1.868c-5.6.052-11.154,0-16.757.208a9.087,9.087,0,0,0-8.4,8.456c-.156,4.2-.156,8.4-.156,12.607,0,3.839,0,7.73.156,11.569a9.057,9.057,0,0,0,7.989,8.56,74.868,74.868,0,0,0,7.626.207,2.857,2.857,0,0,1,2.075.83c3.476,3.528,6.952,7,10.48,10.48a7.482,7.482,0,0,0,1.4,1.141,2.43,2.43,0,0,0,3.528-1.816,10.836,10.836,0,0,0,.052-1.3V249.95c0-.467.052-.934.052-1.5h17.795a11.9,11.9,0,0,0,3.32-.415,9.416,9.416,0,0,0,7.107-9.286c.052-3.528,0-7.107,0-10.635,0-.467.052-.934.052-1.4h11.777c.052.571.1,1.089.1,1.608v15.616c0,1.4.052,2.8,1.556,3.424,1.556.674,2.594-.259,3.632-1.3,6.174-6.225,12.4-12.4,18.521-18.573a2.342,2.342,0,0,1,2.023-.83q5.914.078,11.828,0a14.119,14.119,0,0,0,13.9-13.956c.052-2.179,0-4.306,0-6.485C254.577,198.538,254.629,177.579,254.525,175.037ZM186.1,228.057v9.857c0,3.683-1.712,5.4-5.447,5.4H160.727c-1.971.052-2.905.986-2.957,2.957-.052,1.5,0,3.009,0,4.565v1.5c-.415-.363-.726-.623-.986-.882-2.283-2.283-4.617-4.565-6.9-6.9a4.153,4.153,0,0,0-3.113-1.3c-2.283.052-4.617.052-6.9,0a8.361,8.361,0,0,1-2.283-.311,4.452,4.452,0,0,1-2.957-4.462c.052-7.263,0-14.578,0-21.841a3.926,3.926,0,0,1,.052-.778,4.2,4.2,0,0,1,3.943-3.943c5.862-.052,11.673,0,17.535,0,.1,0,.156.052.311.1.208,1.3.311,2.542.622,3.735a13.981,13.981,0,0,0,13.541,10.687c4.565.052,9.079,0,13.644,0h1.712A9.522,9.522,0,0,1,186.1,228.057Zm59.765-8.4a9.963,9.963,0,0,1-6.225,1.816c-3.995,0-7.989.052-11.932,0a4.675,4.675,0,0,0-3.683,1.5c-4.825,4.928-9.7,9.753-14.578,14.63-.311.311-.674.623-1.193,1.141V225.152a7.23,7.23,0,0,0-.208-1.816,2.209,2.209,0,0,0-2.075-1.816c-.519-.052-1.038-.052-1.556-.052H172.037a15.828,15.828,0,0,1-3.476-.363c-4.15-1.038-6.744-4.462-6.744-9.027-.052-11.984-.052-24.02,0-36a8.956,8.956,0,0,1,3.528-7.471,9.433,9.433,0,0,1,6.07-1.816H239.9a9.178,9.178,0,0,1,1.193.052,8.049,8.049,0,0,1,4.98,1.919,9.172,9.172,0,0,1,3.424,7.522c.052,2.542,0,27.807,0,32.113v3.632A9.331,9.331,0,0,1,245.861,219.653Z" transform="translate(-129.6 -161.6)" fill="#fff"/>
  <path id="Path_304" data-name="Path 304" d="M251.945,197.484H229.222a14.086,14.086,0,0,1-1.453-.052,2.483,2.483,0,0,1-2.179-2.231,2.55,2.55,0,0,1,1.764-2.594,4.369,4.369,0,0,1,1.4-.208h46.121a5.476,5.476,0,0,1,1.3.1,2.648,2.648,0,0,1,1.971,2.594,2.594,2.594,0,0,1-2.283,2.335,10.844,10.844,0,0,1-1.3.052Z" transform="translate(-175.787 -176.421)" fill="#fff"/>
  <path id="Path_305" data-name="Path 305" d="M251.8,217.852H274.42c.519,0,1.038,0,1.556.052a2.536,2.536,0,0,1,2.127,2.283,2.6,2.6,0,0,1-1.764,2.49,5.83,5.83,0,0,1-1.66.208H228.922a5.356,5.356,0,0,1-1.556-.208,2.538,2.538,0,0,1-1.868-2.49,2.5,2.5,0,0,1,2.231-2.335c.519-.052,1.038-.052,1.556-.052C236.807,217.852,244.278,217.852,251.8,217.852Z" transform="translate(-175.746 -188.644)" fill="#fff"/>
  <path id="Path_306" data-name="Path 306" d="M241.836,248.232h-12.71a12.642,12.642,0,0,1-1.4-.052A2.536,2.536,0,0,1,225.6,245.9a2.571,2.571,0,0,1,1.712-2.49,5.827,5.827,0,0,1,1.66-.207H254.7a4.457,4.457,0,0,1,1.66.259,2.4,2.4,0,0,1,1.66,2.49,2.439,2.439,0,0,1-2.127,2.283,12.641,12.641,0,0,1-1.4.052C250.24,248.232,246.038,248.232,241.836,248.232Z" transform="translate(-175.794 -200.867)" fill="#fff"/>
</svg>
