<svg id="price-01" xmlns="http://www.w3.org/2000/svg" width="124.82" height="125" viewBox="0 0 124.82 125">
  <path id="Path_1149" data-name="Path 1149" d="M.125,125.547a6.261,6.261,0,0,1,1.624-2.186c3.373-3.373,6.809-6.746,10.119-10.182a7.954,7.954,0,0,1,6.746-2.748,1.219,1.219,0,0,0,.437-.062c.25-.375.5-.75.75-1.187a29.2,29.2,0,0,1,7.871-8.5,30.149,30.149,0,0,1,11.993-5.122,35.317,35.317,0,0,1,6.746-.687,31.782,31.782,0,0,1,11.306,2.061,6.082,6.082,0,0,0,2.124.375H84.765a10.884,10.884,0,0,1,8.745,3.623l.937-.937c4.56-4.685,9.245-9.37,13.742-14.117a10.075,10.075,0,0,1,11.056-2.249,9.549,9.549,0,0,1,5.372,5.934c.062,2.5.687,5-.625,7.371a15.921,15.921,0,0,1-1.874,2.686c-6.184,7.433-12.368,14.8-18.552,22.237-1.062,1.249-2.061,2.561-3.186,3.685a21.722,21.722,0,0,1-6.684,4.373,22.243,22.243,0,0,1-8.745,1.687H53.282a7.775,7.775,0,0,0-5.809,2.374c-.687.687-1.312,1.437-2.061,2.249.062.312.125.874.187,1.374a7.378,7.378,0,0,1-2.436,6.5L32.044,155.03l-.25.25a2.481,2.481,0,0,1-3.685,0c-.875-.812-1.687-1.687-2.5-2.5-8-8.12-16.053-16.178-24.111-24.3A6.27,6.27,0,0,1,0,126.359,1.985,1.985,0,0,0,.125,125.547Zm42.351,6.309c.5-.437,1.062-1,1.624-1.5a12.118,12.118,0,0,1,6.434-3.5,28.724,28.724,0,0,1,4-.312H86.326a16.478,16.478,0,0,0,9.245-3.311,20.564,20.564,0,0,0,3.436-3.56l17.24-20.613c.874-1.062,1.749-2.124,2.686-3.186a4.7,4.7,0,0,0,1.062-4.56,4.786,4.786,0,0,0-8.12-2.061c-.375.375-.75.812-1.187,1.249-4.685,4.81-9.37,9.62-14.117,14.492-.25.312-.562.562-.75.812v.812a9.962,9.962,0,0,1-10.057,10.369H66.775a4.539,4.539,0,0,1-1.562-.25,2.473,2.473,0,0,1-1.562-2.5,2.327,2.327,0,0,1,1.811-2.124,6.671,6.671,0,0,1,1.562-.187H86.264a4.553,4.553,0,0,0,4.31-3.311,4.774,4.774,0,0,0-1.749-5.31,5.617,5.617,0,0,0-3.436-.937H59.342a6.621,6.621,0,0,1-2.686-.5,23.617,23.617,0,0,0-7.371-1.811,34.276,34.276,0,0,0-8.745.437,24.788,24.788,0,0,0-13.367,7.246,19.133,19.133,0,0,0-3.623,5.122Q33.013,122.33,42.476,131.856ZM6.122,125.922l23.8,23.986a3.582,3.582,0,0,1,.437-.25l9.557-9.37a2.534,2.534,0,0,0,.75-2.561,4.847,4.847,0,0,0-1-1.5L19.8,116.364a2.613,2.613,0,0,0-4.123,0c-1.811,1.936-3.685,3.748-5.559,5.622C8.808,123.3,7.5,124.547,6.122,125.922Z" transform="translate(0 -31.1)" fill="#fff"/>
  <path id="Path_1150" data-name="Path 1150" d="M103.413,0c1.062.25,2.124.437,3.186.687a26.738,26.738,0,0,1,20.239,20.988,26.148,26.148,0,0,1-6.184,22.862,25.807,25.807,0,0,1-15.3,8.745,26.155,26.155,0,0,1-22.737-6.5,26.177,26.177,0,0,1-8.558-15.429A25.933,25.933,0,0,1,77.74,12.68,26.724,26.724,0,0,1,94.793.562L97.6,0Zm-2.936,48.66A21.894,21.894,0,1,0,78.614,26.735,21.858,21.858,0,0,0,100.477,48.66Z" transform="translate(-27.643)" fill="#fff"/>
  <path id="Path_1151" data-name="Path 1151" d="M113.811,20.839a10.478,10.478,0,0,1,3.56,2.249,2.333,2.333,0,0,1,.562,2.748,2.466,2.466,0,0,1-3.748,1,14.172,14.172,0,0,0-1.562-1.124,2.431,2.431,0,0,0-3.436,1.187,2.4,2.4,0,0,0,1.936,3.248,18.024,18.024,0,0,1,1.811.25,7.1,7.1,0,0,1,5.684,5.934,7.237,7.237,0,0,1-3.436,7.5,9.063,9.063,0,0,1-1.374.75c0,.937.062,1.874,0,2.873a2.473,2.473,0,0,1-4.935,0V44.763a31.031,31.031,0,0,1-2.811-1.811,8.876,8.876,0,0,1-1.562-1.5,2.415,2.415,0,0,1,.187-3.5,2.474,2.474,0,0,1,3.5.125c.375.312.687.687,1.062,1a3.25,3.25,0,0,0,2.311.875,2.4,2.4,0,0,0,2.186-2.061,2.313,2.313,0,0,0-1.687-2.5,3.922,3.922,0,0,0-1.187-.187,7.342,7.342,0,0,1-3.123-13.742c.375-.187.687-.375,1.124-.625V18.091a2.348,2.348,0,0,1,1-2,2.419,2.419,0,0,1,3.873,1.874A21.323,21.323,0,0,1,113.811,20.839Z" transform="translate(-38.979 -5.848)" fill="#fff"/>
</svg>
