<svg xmlns="http://www.w3.org/2000/svg" width="124.861" height="125" viewBox="0 0 124.861 125">
  <g id="time-01" transform="translate(-0.107 0.016)">
    <path id="Path_1152" data-name="Path 1152" d="M108.352,77.2c-1,2.5-2,4.81-3,7.308.25.25.562.625.874.937l8.62,8.62.75.75a2.168,2.168,0,0,1,.062,3.061,5.889,5.889,0,0,1-.625.625L98.671,114.865l-.562.562a2.169,2.169,0,0,1-3.061.062l-.75-.75-8.5-8.5a13.085,13.085,0,0,1-.874-1.062c-2.561,1.062-5,2.061-7.5,3.123v1.374c0,4.185-.062,8.37,0,12.555a2.47,2.47,0,0,1-2.748,2.748c-7.87-.062-15.8-.062-23.674,0a2.407,2.407,0,0,1-2.686-2.686c.062-4.185,0-8.37,0-12.555v-1.437c-2.436-1-4.872-2-7.558-3.123a7.922,7.922,0,0,1-1,1.249c-2.811,2.873-5.684,5.684-8.5,8.5a11.17,11.17,0,0,1-.874.812,2.061,2.061,0,0,1-2.5,0,10.373,10.373,0,0,1-.874-.812l-8.62-8.62a61.9,61.9,0,0,1-16.74-30.42,56.709,56.709,0,0,1-1.5-15.554A62.123,62.123,0,0,1,38.455,4.8,58.693,58.693,0,0,1,55.445.431a72.157,72.157,0,0,1,8.245-.437A61.888,61.888,0,0,1,87.365,5.241,63.154,63.154,0,0,1,106.916,18.8l7.87,7.87.375.375c1.374,1.374,1.374,2.436,0,3.81-2.748,2.811-5.559,5.559-8.308,8.308a17.79,17.79,0,0,1-1.624,1.437c1.062,2.561,2.061,4.935,3.123,7.5h14.617a2,2,0,0,1,2,1.936V75.076a2.1,2.1,0,0,1-2,2H109.727A5.125,5.125,0,0,1,108.352,77.2ZM96.172,26.167C86.3,16.422,69.063,10.176,51.323,14.361A49.657,49.657,0,0,0,14.407,51.152C10.222,68.58,16.218,86.007,26.212,96.126c.312-.312.687-.625,1-.937L41.766,80.635c1.374-1.374,2.374-1.374,3.81-.062,6.371,5.747,13.742,7.933,22.112,6.184a24.728,24.728,0,0,0,15.054-38.6c-.75-1-1.562-1.936-2.374-2.873a2.18,2.18,0,0,1,.062-3.248l.75-.75c4.685-4.685,9.432-9.37,14.117-14.117A12.506,12.506,0,0,1,96.172,26.167Zm9.12-2.748-20.3,20.3a29.225,29.225,0,0,1-.5,38.228,28.5,28.5,0,0,1-16.865,9.307,28.807,28.807,0,0,1-23.611-6.371l-20.3,20.3,5.5,5.5a9.625,9.625,0,0,0,.874-.812l8.62-8.62c1.187-1.187,1.874-1.312,3.373-.5a44.489,44.489,0,0,0,8.37,3.436c1.749.562,2.124,1.062,2.124,2.873v12.056a10.12,10.12,0,0,0,.062,1.374H73.185V106.745A2.138,2.138,0,0,1,75,104.309a47.437,47.437,0,0,0,8.5-3.436c1.687-.874,2.249-.812,3.623.562l8.433,8.433c.312.312.687.625.874.812l14.492-14.492a4.976,4.976,0,0,0-.812-.812l-8.62-8.62c-1.187-1.187-1.249-1.811-.5-3.373l.187-.375a46.9,46.9,0,0,0,3.311-8c.562-1.749,1-2.124,2.873-2.124h12.056c.437,0,.937-.062,1.374-.062V52.276H107.415c-1.874,0-2.374-.312-2.873-2.124a43.358,43.358,0,0,0-3.436-8.245c-.874-1.687-.75-2.249.625-3.623l8.5-8.5c.312-.312.562-.625.812-.874C108.977,27.1,107.1,25.23,105.292,23.418Zm-3.186-3.186C80.494-.381,43.14-1.63,20.028,23.543-2.4,48.029,1.789,83.071,20.341,101.935l2.686-2.686C13.845,88.943,8.91,76.887,8.847,63.083A52.748,52.748,0,0,1,22.589,26.791,51.957,51.957,0,0,1,53.384,9.614c17.427-2.936,32.731,1.811,45.973,13.3C100.295,22.044,101.169,21.169,102.106,20.232Z" transform="translate(0 0)" fill="#fff"/>
    <path id="Path_1153" data-name="Path 1153" d="M77.3,78.207a8.888,8.888,0,0,1,6-6v-23.3A2.038,2.038,0,0,1,85.361,47.1a2.164,2.164,0,0,1,2.186,1.811,7.517,7.517,0,0,1,0,1.187v22.05a8.5,8.5,0,0,1,5.559,4.872,8,8,0,0,1,.562,4.81,8.429,8.429,0,0,1-7,6.746,8.075,8.075,0,0,1-5.809-1.312,9.1,9.1,0,0,1-3.56-4.872H63.436a7.56,7.56,0,0,1-1.187-.062A2.074,2.074,0,0,1,60.5,80.268a1.986,1.986,0,0,1,1.749-2.061,7.173,7.173,0,0,1,1.187-.062h12.43A10.588,10.588,0,0,0,77.3,78.207Zm8.12,6.246a4.06,4.06,0,1,0-4.06-4.123A4.123,4.123,0,0,0,85.423,84.453Z" transform="translate(-22.669 -17.685)" fill="#fff"/>
    <path id="Path_1154" data-name="Path 1154" d="M91.12,111.925a21.4,21.4,0,0,1-13.929-5.559,6.219,6.219,0,0,1-.874-.937,2.041,2.041,0,0,1,.187-2.811,2.1,2.1,0,0,1,2.811-.125c.625.5,1.124,1.062,1.749,1.5a16.465,16.465,0,0,0,26.422-9.869,16.072,16.072,0,0,0-4.31-14.554,2.47,2.47,0,0,1-.937-1.811,2.037,2.037,0,0,1,1.062-1.936,1.984,1.984,0,0,1,2.186.062,4.2,4.2,0,0,1,.937.874,20.343,20.343,0,0,1,5.434,15.928A20.6,20.6,0,0,1,95.93,111.05,21.039,21.039,0,0,1,91.12,111.925Z" transform="translate(-28.429 -28.354)" fill="#fff"/>
    <path id="Path_1155" data-name="Path 1155" d="M35.97,136.379a2.056,2.056,0,0,1-2-1.312,1.9,1.9,0,0,1,.312-2.186,2.609,2.609,0,0,1,.937-.687c1.124-.687,2.249-1.312,3.373-1.936a2.1,2.1,0,0,1,2.748.75,1.92,1.92,0,0,1-.437,2.748c-1.374.937-2.811,1.687-4.248,2.5A1.6,1.6,0,0,1,35.97,136.379Z" transform="translate(-12.631 -48.811)" fill="#fff"/>
    <path id="Path_1156" data-name="Path 1156" d="M62.471,33.7a2.142,2.142,0,0,1,1.874.937c.75,1.249,1.5,2.5,2.186,3.81a2.064,2.064,0,0,1-.812,2.811,2,2,0,0,1-2.748-.562A33.609,33.609,0,0,1,60.6,36.573,2.1,2.1,0,0,1,62.471,33.7Z" transform="translate(-22.641 -12.655)" fill="#fff"/>
    <path id="Path_1157" data-name="Path 1157" d="M136.489,36.065a1.359,1.359,0,0,1-.125.625c-.812,1.374-1.5,2.811-2.436,4.123a2.045,2.045,0,0,1-3.373-.125,1.763,1.763,0,0,1-.25-1.811,37.3,37.3,0,0,1,2.561-4.31A1.913,1.913,0,0,1,135.177,34,2.109,2.109,0,0,1,136.489,36.065Z" transform="translate(-48.812 -12.71)" fill="#fff"/>
    <path id="Path_1158" data-name="Path 1158" d="M41.656,64.664A2.1,2.1,0,0,1,38.72,66.6,33.607,33.607,0,0,1,34.6,64.227a1.986,1.986,0,0,1-.5-2.748,2.029,2.029,0,0,1,2.686-.812c1.312.687,2.561,1.437,3.81,2.186A2.041,2.041,0,0,1,41.656,64.664Z" transform="translate(-12.632 -22.694)" fill="#fff"/>
    <path id="Path_1159" data-name="Path 1159" d="M101.219,28.248c0,.687.062,1.374,0,2.061a2.125,2.125,0,0,1-4.248,0c-.062-1.437-.062-2.811,0-4.248a2.125,2.125,0,0,1,4.248,0Z" transform="translate(-36.342 -9.014)" fill="#fff"/>
    <path id="Path_1160" data-name="Path 1160" d="M28.06,101.119H26.124a2.124,2.124,0,1,1,0-4.248q2.061-.094,4.123,0A2.067,2.067,0,0,1,32.37,99a2.106,2.106,0,0,1-2.124,2.124C29.559,101.182,28.81,101.119,28.06,101.119Z" transform="translate(-8.969 -36.35)" fill="#fff"/>
    <path id="Path_1161" data-name="Path 1161" d="M154.6,157.123c.874-.812,1.811-1.749,2.686-2.623.937.937,1.874,1.936,2.873,2.873l-2.686,2.686C156.536,159.122,155.6,158.123,154.6,157.123Z" transform="translate(-57.991 -57.999)" fill="#fff"/>
    <path id="Path_1162" data-name="Path 1162" d="M180,101.142V96.957a30.265,30.265,0,0,1,4.123,0v4.185H180Z" transform="translate(-67.525 -36.372)" fill="#fff"/>
    <path id="Path_1163" data-name="Path 1163" d="M101.176,184.076H97.053c-.125-1.374-.062-2.686-.062-4.123,1.374-.125,2.748-.062,4.185-.062Z" transform="translate(-36.361 -67.524)" fill="#fff"/>
  </g>
</svg>
